# xmcd CD database file
#
# Track frame offsets:
#	150
#	21622
#	41067
#	61490
#	84580
#	104742
#	122702
#	142345
#	162910
#	174927
#
# Disc length: 2574 seconds
#
# Revision: 0
# Processed by: cddbd v1.5.1PL0 Copyright (c) Steve Scherf et al.
# Submitted via: CDex 1.51
#
DISCID=930a0c0a
DTITLE=BE THE VOICE - EPOCHS
DYEAR=2005
DGENRE=Pop
TTITLE0=FLOWERS
TTITLE1=紫陽花の月
TTITLE2=STARMAN
TTITLE3=URASHIMA IN DEEP
TTITLE4=テリトリー
TTITLE5=MISSING
TTITLE6=IT'S A BEAUTIFUL DAY
TTITLE7=I LOVE THE LIFE I LIVE
TTITLE8=鳥の赤ちゃん(SUMJIPA GI)
TTITLE9=ムーンライト
EXTD=YEAR: 2005
EXTT0=
EXTT1=
EXTT2=
EXTT3=
EXTT4=
EXTT5=
EXTT6=
EXTT7=
EXTT8=
EXTT9=
PLAYORDER=
